<svg width="559" height="222" viewBox="0 0 559 222" fill="none" xmlns="http://www.w3.org/2000/svg">
<path d="M121.693 129.999C130.194 129.999 135.051 125.308 137.827 120.502L130.772 117.085C129.153 120.27 125.683 122.702 121.693 122.702C114.696 122.702 109.607 117.316 109.607 110.019C109.607 102.722 114.696 97.3364 121.693 97.3364C125.683 97.3364 129.153 99.8267 130.772 102.954L137.827 99.4792C135.109 94.6724 130.194 90.0394 121.693 90.0394C110.128 90.0394 101.164 98.1472 101.164 110.019C101.164 121.892 110.128 129.999 121.693 129.999ZM167.234 129.304V122.065H150.926V90.6764H142.715V129.304H167.234ZM181.195 129.304V90.6764H172.984V129.304H181.195ZM216.147 129.304V122.065H197.064V113.32H215.743V106.081H197.064V97.9155H216.147V90.6764H188.853V129.304H216.147ZM257.09 129.304V90.6764H248.878V114.942L231.009 90.6764H222.567V129.304H230.778V104.112L249.167 129.304H257.09ZM281.87 129.304V97.9155H293.088V90.6764H262.324V97.9155H273.6V129.304H281.87ZM330.323 129.304V97.9155H341.542V90.6764H310.777V97.9155H322.054V129.304H330.323ZM364.211 129.999C375.95 129.999 381.618 123.455 381.618 113.842V90.6764H373.233V113.61C373.233 118.996 370.168 122.702 364.211 122.702C358.255 122.702 355.133 118.996 355.133 113.61V90.6764H346.805V113.9C346.805 123.397 352.472 129.999 364.211 129.999ZM420.443 129.304L411.769 114.594C415.932 113.61 420.212 109.961 420.212 103.128C420.212 95.9465 415.296 90.6764 407.258 90.6764H389.216V129.304H397.428V115.579H403.442L411.017 129.304H420.443ZM406.044 108.34H397.428V97.9155H406.044C409.34 97.9155 411.827 99.8846 411.827 103.128C411.827 106.371 409.34 108.34 406.044 108.34ZM447.309 129.304C454.653 129.304 458.527 124.671 458.527 118.88C458.527 114.015 455.231 110.019 451.125 109.382C454.768 108.629 457.776 105.386 457.776 100.522C457.776 95.3674 454.017 90.6764 446.673 90.6764H426.375V129.304H447.309ZM444.88 106.139H434.587V97.7418H444.88C447.656 97.7418 449.391 99.5371 449.391 101.969C449.391 104.402 447.656 106.139 444.88 106.139ZM445.169 122.181H434.587V113.205H445.169C448.407 113.205 450.142 115.289 450.142 117.722C450.142 120.502 448.292 122.181 445.169 122.181ZM472.931 129.304V90.6764H464.72V129.304H472.931ZM515.113 129.304V90.6764H506.902V114.942L489.033 90.6764H480.59V129.304H488.802V104.112L507.191 129.304H515.113ZM550.012 129.304V122.065H530.929V113.32H549.608V106.081H530.929V97.9155H550.012V90.6764H522.718V129.304H550.012Z" fill="black"/>
<path d="M190.117 172.308C191.226 173.273 192.711 171.631 191.68 170.587C179.122 157.878 164.348 146.645 151.114 134.401C150.327 133.713 149.429 133.003 148.509 134.035C147.634 135.023 148.532 135.711 149.23 136.322C162.841 148.332 176.529 160.264 190.117 172.308Z" fill="black"/>
<path d="M142.79 142.36C141.272 142.826 142.524 144.869 143.278 145.845C152.766 160.031 162.176 174.284 171.707 188.447C172.76 190.179 175.055 188.458 173.847 186.893C164.414 172.685 154.938 158.51 145.473 144.314C145.018 143.636 144.675 142.826 143.899 142.449C143.544 142.282 143.156 142.249 142.79 142.36Z" fill="black"/>
<path d="M163.395 193.564C155.669 177.858 148.31 161.785 139.997 146.411C139.62 146.078 139.133 145.934 138.601 146.223C138.002 146.545 137.88 147.133 138.046 147.677C145.816 163.494 153.253 179.623 161.555 195.129C162.519 195.795 163.96 194.707 163.395 193.564Z" fill="black"/>
<path d="M135.22 149.719C134.777 149.375 134.156 149.342 133.713 149.664C133.137 150.085 133.225 150.829 133.536 151.739C138.745 167.046 143.888 182.364 149.075 197.682C149.418 198.781 149.961 200.568 151.447 199.858C152.788 199.27 151.835 197.716 151.557 196.728C146.481 181.732 141.405 166.735 136.329 151.739C136.085 150.985 135.874 150.219 135.22 149.719Z" fill="black"/>
<path d="M183.633 180.721C183.866 179.334 183.124 178.801 182.58 178.191C171.297 165.293 160.025 152.394 148.72 139.518C148.077 138.786 147.368 137.265 146.182 138.353C145.107 139.352 146.071 140.473 146.88 141.394C157.398 153.393 167.906 165.415 178.413 177.425C179.444 178.402 182.414 183.175 183.633 180.721Z" fill="black"/>
<path d="M128.038 153.793C131.152 169.499 134.278 185.206 137.415 200.912C137.614 201.934 137.548 203.399 139.133 203.155C140.784 202.899 140.197 201.501 139.997 200.513C136.96 185.051 133.901 169.588 130.82 154.126C130.632 153.182 130.598 151.939 129.124 152.117C128.182 152.217 127.949 152.938 128.038 153.793Z" fill="black"/>
<path d="M122.297 155.98C123.272 171.553 124.247 186.849 125.311 202.355C125.378 203.41 125.167 204.853 126.752 204.797C128.371 204.731 127.994 203.321 127.927 202.267C126.907 186.849 126.032 171.42 124.935 156.002C124.846 155.047 124.746 154.037 123.416 154.17C122.252 154.292 122.33 155.258 122.297 155.98Z" fill="black"/>
<path d="M112.344 157.589C112.388 156.834 112.321 156.046 111.346 155.88C110.083 155.669 109.817 156.623 109.628 157.567C106.846 171.897 103.82 186.194 101.127 200.535C100.994 201.567 100.362 202.91 102.025 203.155C103.399 203.354 103.455 202.078 103.654 201.09C106.647 186.605 109.362 172.075 112.344 157.589Z" fill="black"/>
<path d="M114.605 180.344C114.106 187.959 113.596 195.584 113.108 203.199C113.031 204.098 113.396 204.72 114.305 204.797C115.27 204.875 115.569 204.231 115.624 203.354C116.622 187.948 117.653 172.541 118.661 157.134C118.739 156.313 118.606 155.524 117.664 155.413C116.611 155.291 116.223 156.024 116.156 156.979C115.635 164.771 115.114 172.552 114.605 180.344Z" fill="black"/>
<path d="M105.771 156.967C106.17 155.502 103.865 154.692 103.31 156.235C98.489 170.343 93.4792 184.44 89.0236 198.659C88.7687 199.847 90.6862 200.535 91.2625 199.447C96.3721 185.395 101.038 171.153 105.771 156.967Z" fill="black"/>
<path d="M78.5164 195.196C79.6358 195.307 80.0127 194.652 80.3563 193.953C86.4855 181.532 92.6037 169.122 98.7218 156.69C99.1319 155.869 99.675 154.814 98.5888 154.237C97.3918 153.604 96.7822 154.659 96.3278 155.58C90.1985 167.99 84.0693 180.411 77.9511 192.832C77.4523 193.853 77.3304 194.774 78.5164 195.196Z" fill="black"/>
<path d="M67.5214 188.913C67.7431 189.047 68.0091 189.113 68.2751 189.08C69.0288 188.991 69.3835 188.425 69.7492 187.881C77.1531 176.803 84.5459 165.737 91.9276 154.648C92.4596 153.848 93.3795 152.838 92.1825 152.028C90.9079 151.173 90.2207 152.405 89.6332 153.282C82.2183 164.349 74.8366 175.438 67.4438 186.505C66.8342 187.448 66.5682 188.325 67.5214 188.913Z" fill="black"/>
<path d="M49.8098 172.485C50.6189 172.641 51.151 172.075 51.7162 171.575C60.827 163.028 71.3564 155.402 79.791 146.4C80.6445 145.523 79.9019 143.825 78.5275 144.624C68.9512 152.705 59.6632 161.163 50.1867 169.388C49.2224 170.099 47.6042 172.208 49.8098 172.485Z" fill="black"/>
<path d="M86.2306 149.031C85.6431 147.854 83.77 149.12 83.0939 150.119C74.5817 159.842 65.9919 169.522 57.5351 179.29C56.2715 180.599 58.2112 182.475 59.4304 181.099C68.1864 170.765 77.94 160.952 86.0865 150.241C86.3525 149.897 86.419 149.431 86.2306 149.031Z" fill="black"/>
<path d="M41.4528 162.751C41.9405 163.017 42.539 162.984 43.0156 162.684C53.3344 156.202 63.3539 149.12 73.5398 142.415C74.36 141.86 75.8341 141.339 74.8144 139.962C73.9056 138.73 72.8637 139.663 71.977 140.262C62.1791 146.789 52.4144 153.36 42.6055 159.887C41.342 160.52 40.2336 162.074 41.4528 162.751Z" fill="black"/>
<path d="M35.3236 152.239C35.7226 152.45 36.2103 152.439 36.6204 152.25C47.3604 147.377 57.8675 141.783 68.5078 136.654C69.3945 136.222 70.647 135.811 70.0595 134.523C69.3945 133.102 68.2086 133.835 67.2443 134.301C56.9365 139.374 46.6289 144.458 36.3211 149.542C35.4899 149.952 34.5699 150.352 34.8138 151.551C34.8803 151.884 35.0576 152.095 35.3236 152.239Z" fill="black"/>
<path d="M42.2952 102.788C37.6179 102.478 32.9406 102.145 28.2633 101.878C27.166 101.812 25.5922 101.334 25.4148 103.01C25.2264 104.72 26.8335 104.587 27.9419 104.653C37.5403 105.319 47.1498 105.952 56.7592 106.562C57.8011 106.629 59.2309 106.929 59.3639 105.397C59.519 103.632 57.9341 103.854 56.8368 103.776C51.9822 103.41 47.1387 103.11 42.2952 102.788Z" fill="black"/>
<path d="M30.8679 140.773C31.1893 140.884 31.5329 140.862 31.8543 140.762C42.5833 137.287 53.2679 133.502 63.9636 129.906C64.9168 129.584 66.5017 129.462 66.0806 127.986C65.6261 126.398 64.2407 127.02 63.1212 127.397C52.7359 130.916 42.3505 134.435 31.9763 137.964C31.0452 138.286 29.8925 138.497 30.1031 139.885C30.1696 140.318 30.4356 140.617 30.8679 140.773Z" fill="black"/>
<path d="M28.5625 129.018C39.2692 126.886 49.9761 124.766 60.6718 122.624C61.6915 122.413 63.1656 122.391 62.8442 120.826C62.5227 119.25 61.1705 119.849 60.1508 120.049C49.7211 122.102 39.2803 124.156 28.8506 126.232C27.8753 126.42 26.6893 126.565 26.8999 127.996C27.0329 128.873 27.7644 129.106 28.5625 129.018Z" fill="black"/>
<path d="M58.5991 112.079C48.1584 112.745 37.7176 113.411 27.2879 114.099C26.3902 114.155 25.2264 114.199 25.2929 115.487C25.3705 116.874 26.5453 116.841 27.5761 116.774C37.8506 116.108 48.1141 115.442 58.3885 114.754C59.3528 114.688 60.6274 114.754 60.6274 113.322C60.6274 112.079 59.5745 112.001 58.5991 112.079Z" fill="black"/>
<path d="M29.2942 89.7682C28.341 89.7127 27.2437 89.3797 26.9555 90.6562C26.6563 91.9549 27.7314 92.1436 28.6403 92.3323C38.0946 94.2415 47.5489 96.1507 57.0141 98.0488C57.9562 98.2375 59.0092 98.3041 59.1865 97.0276C59.3749 95.7511 58.2555 95.5624 57.3799 95.3848C48.0477 93.4867 38.6266 91.6441 29.2942 89.7682Z" fill="black"/>
<path d="M31.9541 77.8246C30.0255 77.3362 29.3384 79.6228 31.0452 80.2222C39.7348 83.2747 48.4909 86.1829 57.2026 89.1577C58.1779 89.4907 59.4193 90.3121 59.9957 88.7803C60.572 87.2485 59.1201 87.0154 58.1447 86.6713C49.433 83.7409 40.7102 80.6218 31.9541 77.8246Z" fill="black"/>
<path d="M36.5538 66.4914C35.0132 66.2805 34.1819 68.0232 35.5009 68.7891C43.9466 72.9516 52.3036 77.5027 60.9489 81.199C62.0461 81.4876 62.7998 79.8781 61.9575 79.1677C53.7334 74.5945 45.0217 70.6095 36.5538 66.4914Z" fill="black"/>
<path d="M43.0932 55.9908C41.9183 55.2027 40.2447 56.5347 41.3863 57.7779C41.741 58.1331 42.1511 58.4328 42.5612 58.7103C49.5992 63.3168 56.4599 68.2341 63.5978 72.6741C64.2517 73.0515 65.0719 73.0293 65.4709 72.2412C65.7591 71.6862 65.6039 71.1867 65.2049 70.7871C57.9784 65.7255 50.5413 60.6972 43.0932 55.9908Z" fill="black"/>
<path d="M49.2002 46.1341C47.7373 46.6114 48.8566 48.3652 49.9982 49.1755C55.8615 54.2482 61.5917 59.4985 67.5104 64.5157C69.184 66.1474 71.168 63.9829 69.2837 62.5843C63.4648 57.4672 57.6459 52.339 51.827 47.2219C51.1398 46.567 50.231 45.7789 49.2002 46.1341Z" fill="black"/>
<path d="M163.062 46.8666C163.572 46.0341 162.353 45.2238 161.788 46.0119C161.544 46.3449 161.366 46.7223 161.156 47.0442C153.453 58.5439 145.75 70.0546 138.091 81.5764C137.714 82.3534 136.384 83.3635 137.448 84.0517C138.213 84.529 138.634 83.3746 139.022 82.7863C147.08 70.8538 154.982 58.7881 163.062 46.8666Z" fill="black"/>
<path d="M68.2419 29.6949C66.6569 29.7837 66.8232 31.482 67.6434 32.3367C71.5892 38.2863 75.5349 44.2359 79.5361 50.1412C80.046 50.896 80.6888 51.4954 81.6088 50.8516C82.5398 50.2078 82.1851 49.3642 81.6974 48.6316C77.7517 42.6819 73.7837 36.7545 69.8269 30.816C69.4389 30.2499 68.9734 29.7726 68.2419 29.6949Z" fill="black"/>
<path d="M154.428 42.2601C154.517 41.4054 153.552 40.9947 153.142 41.7717C146.625 54.8364 140.119 67.9233 133.779 81.0768C133.668 81.4431 133.547 81.9759 134.101 82.098C134.987 82.1424 135.331 81.0657 135.675 80.3997C141.904 67.668 148.321 55.0251 154.428 42.2601Z" fill="black"/>
<path d="M144.918 39.929C144.974 39.4961 145.007 38.9744 144.53 38.8634C143.522 38.6081 143.533 39.5849 143.344 40.1177C139.022 52.6608 134.788 65.2371 130.51 77.7912C130.377 78.6348 129.357 79.9557 130.31 80.5551C130.72 80.7549 130.964 80.4663 131.13 80.1999C136.007 66.9021 140.208 53.3157 144.918 39.929Z" fill="black"/>
<path d="M75.2578 56.4125C75.3908 55.5356 74.7923 55.0139 74.3046 54.4589C69.6273 49.0976 64.9389 43.7363 60.2395 38.3972C59.6631 37.7423 58.9981 36.6434 58.0006 37.4204C57.0252 38.1863 57.5129 39.2408 58.2333 40.0622C63.0326 45.5456 67.8318 51.029 72.631 56.5124C73.2073 57.4115 75.1913 57.911 75.2578 56.4125Z" fill="black"/>
<path d="M89.6997 43.7807C86.951 37.4759 83.5927 31.3487 80.6333 25.1327C80.2122 24.3002 79.5028 23.1236 78.4055 23.6009C77.5188 24.0227 77.5632 24.7997 77.9068 25.5434C80.8218 31.6817 83.8919 37.7423 86.8845 43.8473C87.2613 44.6021 87.6382 45.4346 88.7133 45.2237C89.3451 45.0905 89.6776 44.6021 89.6997 43.7807Z" fill="black"/>
<path d="M135.353 38.9523C135.497 38.3418 135.564 37.6204 134.799 37.5427C134.034 37.465 134.034 38.3085 133.923 38.8524C131.274 51.673 128.736 64.5268 126.231 77.3695C126.087 78.1132 125.411 79.2565 126.619 79.4674C127.573 79.6339 127.451 78.3796 127.584 77.7136C130.188 64.7932 132.76 51.8728 135.353 38.9523Z" fill="black"/>
<path d="M124.68 58.2885C125.09 52.0947 125.511 45.9009 125.877 39.696C125.921 38.9634 126.442 37.6647 125.278 37.6314C124.258 37.5981 124.491 38.919 124.436 39.7071C123.605 52.4388 122.696 65.1594 121.931 77.8911C121.876 79.2342 123.394 79.1898 123.361 77.88C123.837 71.3532 124.236 64.8153 124.68 58.2885Z" fill="black"/>
<path d="M90.1763 18.828C88.6135 19.2165 89.0347 20.3709 89.3783 21.3921C91.3179 27.1975 93.313 32.9695 95.2526 38.7748C95.5741 39.6517 95.9177 40.7173 97.0925 40.4065C98.4558 40.0402 98.1344 38.9413 97.7908 37.9312C95.696 31.9261 93.8229 25.8322 91.6061 19.8603C91.3623 19.3053 90.8857 18.939 90.1763 18.828Z" fill="black"/>
<path d="M115.358 40.3842C116.179 52.783 116.999 65.0818 117.819 77.3695C117.863 77.9911 117.653 78.9568 118.573 78.9457C119.515 78.9235 119.282 77.9689 119.249 77.3473C118.44 65.0485 117.619 52.7608 116.788 40.462C116.744 39.8404 116.932 38.8525 116.034 38.8747C115.126 38.8969 115.381 39.8514 115.358 40.3842Z" fill="black"/>
<path d="M107.068 34.3126C105.982 28.8847 104.796 22.8907 103.576 16.8967C103.41 16.0975 102.978 15.4204 102.047 15.5758C100.961 15.7645 100.85 16.6081 101.027 17.5183C102.191 23.4346 103.366 29.3509 104.552 35.2672C104.718 36.0664 105.139 36.7102 106.081 36.5881C107.068 36.4549 107.201 35.7112 107.068 34.3126Z" fill="black"/>
<path d="M106.613 42.5931C108.941 54.2925 111.147 65.8254 113.541 77.4693C113.685 78.1908 113.485 79.5783 114.594 79.4118C115.735 79.2342 115.115 78.0576 114.959 77.3139C112.654 65.7144 110.437 54.0927 108.054 42.5154C107.921 41.9604 107.888 41.2056 107.057 41.4054C106.436 41.5497 106.602 42.1935 106.613 42.5931Z" fill="black"/>
<path d="M111.279 79.5451C107.555 68.2675 103.698 56.9344 99.8301 45.69C99.6417 45.2238 99.4422 44.6688 98.7883 44.9463C98.3449 45.135 98.3338 45.5901 98.4668 46.0341C102.28 57.4006 106.07 68.8003 110.06 80.1112C110.426 80.977 111.512 80.6551 111.279 79.5451Z" fill="black"/>
<path d="M116.766 31.937C116.422 26.4758 116.09 21.1256 115.746 15.7754C115.691 14.8874 115.458 14.0216 114.35 14.0327C113.23 14.0438 113.02 14.9096 113.075 15.8087C113.43 21.2477 113.796 26.6867 114.172 32.1146C114.239 33.047 114.339 34.1459 115.635 34.0127C116.899 33.8795 116.677 32.7251 116.766 31.937Z" fill="black"/>
<path d="M107.467 81.5097C102.668 71.1755 97.414 61.0523 92.4374 50.807C92.1271 50.1854 91.9276 48.9977 91.052 49.4084C89.9215 49.9412 90.9079 50.8736 91.2293 51.5285C95.9731 61.241 100.739 70.9313 105.527 80.6217C105.826 81.2322 105.926 82.1978 106.979 82.0647C107.145 82.0313 107.278 81.7206 107.467 81.5097Z" fill="black"/>
<path d="M103.964 83.1968C98.1344 74.0615 91.9386 65.1038 85.9424 56.0573C85.5434 55.469 85.2552 54.137 84.2355 54.8252C83.504 55.3136 84.2909 56.1905 84.6899 56.801C90.4534 65.4479 96.2169 74.1059 102.003 82.7417C102.357 83.2745 102.568 84.0293 103.399 84.0293C103.809 84.0182 103.931 83.6852 103.964 83.1968Z" fill="black"/>
<path d="M78.1395 61.1412C77.5964 62.007 79.6247 63.5166 80.0792 64.2381C86.2749 71.2866 92.4595 78.3351 98.6775 85.3614C99.1208 85.872 99.6306 87.0264 100.34 86.4492C101.26 85.7055 100.174 84.9729 99.675 84.3957C92.7699 76.6701 86.2084 68.5893 79.0927 61.0635C78.8267 60.786 78.3501 60.8082 78.1395 61.1412Z" fill="black"/>
<path d="M69.4388 74.894C68.6408 75.3491 70.0817 76.4813 70.7356 76.8476C78.7158 82.0202 86.43 87.7478 94.5654 92.6207C95.3413 92.7206 95.7957 91.9769 95.0198 91.4108C86.8734 85.8608 78.6604 80.2775 70.3809 74.9384C70.0928 74.7608 69.7381 74.7275 69.4388 74.894Z" fill="black"/>
<path d="M74.227 67.7456C73.961 67.5236 73.5731 67.5014 73.3181 67.7234C72.6975 68.234 73.7726 69.2219 74.3268 69.677C81.4314 75.9374 88.547 82.1867 95.6849 88.4138C96.2391 88.8911 96.9041 90.1232 97.68 89.1686C98.3561 88.325 97.1369 87.7589 96.5605 87.2594C89.1012 80.777 81.775 74.0948 74.227 67.7456Z" fill="black"/>
<path d="M134.899 30.6716C134.267 33.0803 137.082 33.824 137.437 31.5152C138.379 26.831 139.299 22.1357 140.219 17.4404C140.374 16.6301 140.208 15.8753 139.255 15.6866C138.335 15.509 137.803 16.0751 137.636 16.8965C136.694 21.5807 135.774 26.276 134.899 30.6716Z" fill="black"/>
<path d="M127.462 23.3679C127.628 20.937 127.794 18.5061 127.938 16.0752C127.994 15.2316 128.06 14.2548 126.919 14.1105C125.799 13.9662 125.533 14.8431 125.467 15.7422C125.123 20.8482 124.79 25.9653 124.469 31.0713C124.425 31.8705 124.569 32.6697 125.533 32.7918C126.719 32.9361 126.874 32.037 126.941 31.1601C127.129 28.5627 127.284 25.9653 127.462 23.3679Z" fill="black"/>
<path d="M67.2997 82.209C66.7123 82.0758 66.3909 82.4199 66.4352 82.8306C66.4685 83.0637 66.6125 83.2524 66.812 83.3634C74.7147 87.7479 83.0385 91.4331 91.0963 95.529C91.7613 95.8509 92.7034 96.7944 93.2243 95.6844C93.6344 94.8075 92.4374 94.5966 91.8167 94.2858C83.7035 90.2898 75.5903 86.1717 67.4327 82.2645C67.3995 82.2423 67.3551 82.2201 67.2997 82.209Z" fill="black"/>
<path d="M152.189 20.9037C152.71 18.8391 150.438 17.9289 149.828 19.7271C148.321 24.0672 146.836 28.4184 145.395 32.7807C145.162 33.4911 145.461 34.1349 146.215 34.3791C146.991 34.6233 147.578 34.1793 147.811 33.5133C149.341 29.1732 150.826 24.8331 152.189 20.9037Z" fill="black"/>
<path d="M65.7702 89.9457C65.3601 89.8569 64.8392 89.7458 64.6951 90.2453C64.4291 91.211 65.3269 91.3221 65.8811 91.5219C73.8724 94.2636 81.8636 96.9942 89.8771 99.6915C90.4756 99.8913 91.3623 100.324 91.6727 99.5805C92.0384 98.7258 91.0852 98.5593 90.4756 98.3484C82.2405 95.5512 74.0164 92.7096 65.7702 89.9457Z" fill="black"/>
<path d="M66.1581 97.7378C65.9697 97.7045 65.7812 97.6934 65.5928 97.6712C64.9167 97.5824 64.1409 97.2161 63.9968 98.1041C63.8527 98.9699 64.817 98.9921 65.4376 99.1253C73.1408 100.668 80.8439 102.211 88.547 103.71C89.212 103.843 90.3425 104.331 90.531 103.465C90.7859 102.322 89.5113 102.444 88.7687 102.289C81.2096 100.746 73.6395 99.2363 66.1581 97.7378Z" fill="black"/>
<path d="M66.1581 97.6936C65.9697 97.6603 65.7812 97.6492 65.5928 97.627C64.9167 97.5382 64.1409 97.1719 63.9968 98.0599C63.8527 98.9257 64.817 98.9479 65.4376 99.0811C73.1408 100.624 80.8439 102.167 88.547 103.665C89.212 103.799 90.3425 104.287 90.531 103.421C90.7859 102.278 89.5113 102.4 88.7687 102.245C81.2096 100.702 73.6395 99.1921 66.1581 97.6936Z" fill="black"/>
<path d="M77.3193 107.228C80.999 107.472 84.6677 107.739 88.3475 107.939C89.0125 107.972 90.0987 108.349 90.143 107.239C90.1763 106.418 89.1788 106.462 88.5359 106.418C81.0212 105.907 73.4954 105.419 65.9697 104.931C65.3157 104.886 64.3182 104.797 64.2849 105.563C64.2295 106.607 65.349 106.407 66.0362 106.462C69.7935 106.751 73.5508 106.984 77.3193 107.228Z" fill="black"/>
<path d="M163.55 25.2217C163.927 23.7454 162.131 23.0128 161.411 24.0895C159.128 27.7969 157.343 31.7485 155.57 35.7112C155.082 37.3984 157.532 37.8646 158.064 36.2662C159.892 32.6476 161.832 28.8403 163.55 25.2217Z" fill="black"/>
<path d="M88.1258 110.747C81.0323 111.191 74.094 111.624 67.1556 112.079C66.546 112.124 65.5485 112.035 65.6039 112.923C65.6593 113.866 66.6347 113.544 67.2332 113.511C74.3378 113.1 81.4424 112.656 88.5581 112.201C89.1788 112.157 90.2539 112.179 90.1098 111.369C89.8992 110.181 88.7022 110.98 88.1258 110.747Z" fill="black"/>
<path d="M68.7295 120.415C75.7787 119.017 82.6727 117.662 89.5556 116.275C90.0877 116.164 90.8857 116.031 90.6973 115.254C90.4978 114.432 89.7441 114.776 89.212 114.876C82.4067 116.219 75.6014 117.563 68.796 118.939C68.2862 119.039 67.4771 119.072 67.6433 119.927C67.7763 120.571 68.4081 120.415 68.7295 120.415Z" fill="black"/>
<path d="M174.046 31.7039C174.456 29.9945 172.904 29.1287 171.962 30.2276C169.557 33.2468 167.462 36.4769 165.523 39.818C165.201 40.373 165.423 40.9835 165.988 41.3498C166.465 41.6717 167.074 41.6384 167.363 41.2277C169.701 37.9643 171.985 34.6676 174.046 31.7039Z" fill="black"/>
<path d="M71.6113 126.753C77.9511 124.655 84.3463 122.48 90.6529 120.282C91.1739 120.049 91.9497 119.871 91.6504 119.116C91.3512 118.373 90.6418 118.772 90.1209 118.95C83.8587 121.07 77.5853 123.112 71.3563 125.332C70.4364 125.543 70.3588 126.898 71.6113 126.753Z" fill="black"/>
<path d="M91.9719 122.669C86.3636 125.51 80.6666 128.185 75.0694 131.06C74.6925 131.26 74.3489 131.582 74.5484 132.07C74.7479 132.548 75.1913 132.559 75.6014 132.359C81.1432 129.351 87.2503 127.042 92.5593 123.734C93.2354 123.312 92.6591 122.313 91.9719 122.669Z" fill="black"/>
<path d="M79.137 136.244C78.6604 136.788 79.2035 137.62 79.8796 137.398C84.6455 134.379 89.3007 131.127 94.0001 127.997C94.5765 127.608 95.6738 127.209 95.1528 126.376C94.5876 125.466 93.8228 126.398 93.2575 126.765C88.5692 129.917 83.7589 132.969 79.137 136.244Z" fill="black"/>
<path d="M89.1899 145.079C89.5446 145.468 90.1652 145.435 90.4867 145.024C93.4792 141.228 96.9152 137.72 100.03 134.013C100.451 133.535 101.26 132.925 100.639 132.326C99.808 131.526 99.3536 132.614 98.9213 133.103C95.7957 136.621 92.7034 140.162 89.6111 143.703C89.068 144.269 88.8352 144.691 89.1899 145.079Z" fill="black"/>
<path d="M83.8586 141.527C84.0803 141.794 84.4793 141.816 84.7453 141.605C88.8463 138.364 92.6258 134.734 96.5826 131.326C97.1036 130.86 98.1233 130.305 97.4693 129.55C96.7932 128.796 96.1614 129.806 95.6627 130.239C91.9275 133.469 88.2145 136.743 84.5126 140.007C83.9916 140.384 83.4929 141.061 83.8586 141.527Z" fill="black"/>
<path d="M94.7317 146.844C94.4657 147.588 95.3634 148.154 95.9176 147.588C98.4779 143.958 100.872 140.184 103.355 136.477C103.698 135.944 104.341 135.211 103.632 134.723C102.878 134.201 102.512 135.134 102.169 135.644C99.6861 139.385 97.1036 143.059 94.7317 146.844Z" fill="black"/>
<path d="M107.533 137.653C107.345 136.621 106.691 136.099 106.126 137.098C104.219 140.917 102.346 144.746 100.473 148.587C100.285 148.975 100.229 149.419 100.617 149.719C100.95 149.986 101.315 149.764 101.471 149.475C103.499 145.557 105.516 141.605 107.533 137.653Z" fill="black"/>
<path d="M106.181 149.386C105.849 150.674 107.035 151.307 107.489 150.074C108.719 146.5 109.927 142.926 111.124 139.341C111.435 138.397 110.36 138.042 109.905 138.841C108.586 142.382 107.367 145.99 106.181 149.386Z" fill="black"/>
<path d="M115.092 140.817C115.081 140.34 115.392 139.552 114.616 139.407C113.829 139.263 113.796 140.073 113.674 140.617C113.053 143.57 112.454 146.522 111.845 149.475C111.745 149.952 111.546 150.585 112.155 150.785C113.009 151.073 113.097 150.23 113.208 149.73C113.851 146.789 114.461 143.836 115.092 140.817Z" fill="black"/>
<path d="M118.949 145.035C119.027 143.858 119.127 142.693 119.171 141.516C119.193 140.961 119.348 140.14 118.539 140.129C117.819 140.118 117.775 140.917 117.73 141.494C117.542 144.003 117.376 146.511 117.231 149.031C117.198 149.52 117.176 150.197 117.786 150.274C118.628 150.385 118.606 149.597 118.661 149.053C118.794 147.71 118.85 146.378 118.949 145.035C118.938 145.035 118.938 145.035 118.949 145.035Z" fill="black"/>
<path d="M123.616 144.758C123.582 143.659 123.582 142.56 123.516 141.472C123.483 140.961 123.571 140.173 122.762 140.229C122.042 140.273 122.064 141.028 122.075 141.561C122.119 143.914 122.175 146.256 122.263 148.609C122.274 149.064 122.319 149.697 122.928 149.719C123.771 149.753 123.693 149.02 123.693 148.509C123.704 147.266 123.649 146.012 123.616 144.758Z" fill="black"/>
<path d="M128.215 146.8C128.226 146.578 128.215 146.345 128.182 146.123C127.938 144.48 127.683 142.748 127.417 141.017C127.362 140.662 127.218 140.24 126.83 140.262C126.287 140.295 126.231 140.784 126.287 141.217C126.52 143.092 126.774 144.968 127.029 146.833C127.085 147.255 127.196 147.799 127.672 147.777C128.249 147.754 128.204 147.288 128.215 146.8Z" fill="black"/>
</svg>
